<svg xmlns="http://www.w3.org/2000/svg" width="100%" viewBox="-113.224 -24.64 329.224 161.29253" style="max-width: 329.224px;"><rect x="-113.224" y="-24.64" width="329.224" height="161.29253" fill="#FFFFFF"/><defs><marker id="arrow-0" viewBox="0 0 10 10" refX="5" refY="5" markerUnits="userSpaceOnUse" markerWidth="8" markerHeight="8" orient="auto"><path d="M 0 0 L 10 5 L 0 10 z" fill="#64748B" stroke="#64748B" stroke-width="1" stroke-dasharray="1,0"/></marker><marker id="arrow-start-0" viewBox="0 0 10 10" refX="4.5" refY="5" markerUnits="userSpaceOnUse" markerWidth="8" markerHeight="8" orient="auto"><path d="M 0 5 L 10 10 L 10 0 z" fill="#64748B" stroke="#64748B" stroke-width="1" stroke-dasharray="1,0"/></marker></defs><g><line x1="0.00" y1="0.00" x2="210.00" y2="0.00" stroke="#64748B" stroke-width="0.8" stroke-dasharray="2"/><rect x="-78.79" y="-18.64" width="49.79" height="27.64" rx="4.00" ry="4.00" fill="hsl(240, 100%, 46.2745098039%)" stroke="none"/><text x="-69.79" y="2.68" text-anchor="start" font-family="DejaVu Sans" font-size="16" fill="#ffffff"><tspan x="-69.79" dy="0.00">main</tspan></text><line x1="0.00" y1="72.00" x2="210.00" y2="72.00" stroke="#64748B" stroke-width="0.8" stroke-dasharray="2"/><rect x="-107.22" y="53.36" width="78.22" height="27.64" rx="4.00" ry="4.00" fill="hsl(60, 100%, 43.5294117647%)" stroke="none"/><text x="-98.22" y="74.68" text-anchor="start" font-family="DejaVu Sans" font-size="16" fill="black"><tspan x="-98.22" dy="0.00">proposal</tspan></text><g class="commit-arrows"><path d="M 8 0 L 8 56 A 16 16, 0, 0, 0, 24 72 L 50 72" fill="none" stroke="hsl(60, 100%, 43.5294117647%)" stroke-width="6" stroke-linecap="round"/><path d="M 50 72 L 92 72" fill="none" stroke="hsl(60, 100%, 43.5294117647%)" stroke-width="6" stroke-linecap="round"/><path d="M 8 0 L 134 0" fill="none" stroke="hsl(240, 100%, 46.2745098039%)" stroke-width="6" stroke-linecap="round"/><path d="M 134 0 L 176 0" fill="none" stroke="hsl(240, 100%, 46.2745098039%)" stroke-width="6" stroke-linecap="round"/><path d="M 92 72 L 160 72 A 16 16, 0, 0, 0, 176 56 L 176 0" fill="none" stroke="hsl(60, 100%, 43.5294117647%)" stroke-width="6" stroke-linecap="round"/></g><g class="commit-bullets"><circle cx="8.00" cy="0.00" r="8.00" fill="hsl(240, 100%, 46.2745098039%)" stroke="hsl(240, 100%, 46.2745098039%)"/><circle cx="50.00" cy="72.00" r="8.00" fill="hsl(60, 100%, 43.5294117647%)" stroke="hsl(60, 100%, 43.5294117647%)"/><circle cx="92.00" cy="72.00" r="8.00" fill="hsl(60, 100%, 43.5294117647%)" stroke="hsl(60, 100%, 43.5294117647%)"/><circle cx="134.00" cy="0.00" r="8.00" fill="hsl(240, 100%, 46.2745098039%)" stroke="hsl(240, 100%, 46.2745098039%)"/><circle cx="176.00" cy="0.00" r="7.50" fill="hsl(240, 100%, 46.2745098039%)" stroke="hsl(240, 100%, 46.2745098039%)"/><circle cx="176.00" cy="0.00" r="5.00" fill="#F8FAFC" stroke="#F8FAFC"/></g><g class="commit-labels"><g transform="translate(-20.96, 19.62) rotate(-45.00, 0.00, 0.00)"><rect x="-12.88" y="10.50" width="41.75" height="15.00" fill="#ffffde" opacity="0.5"/><text x="-11.38" y="20.00" text-anchor="start" font-family="DejaVu Sans" font-size="10" fill="#000021">baseline</text></g><g transform="translate(-18.55, 17.37) rotate(-45.00, 42.00, 72.00)"><rect x="32.89" y="82.50" width="34.22" height="15.00" fill="#ffffde" opacity="0.5"/><text x="34.39" y="92.00" text-anchor="start" font-family="DejaVu Sans" font-size="10" fill="#000021">design</text></g><g transform="translate(-22.10, 20.69) rotate(-45.00, 84.00, 72.00)"><rect x="69.35" y="82.50" width="45.31" height="15.00" fill="#ffffde" opacity="0.5"/><text x="70.85" y="92.00" text-anchor="start" font-family="DejaVu Sans" font-size="10" fill="#000021">evidence</text></g><g transform="translate(-18.46, 17.28) rotate(-45.00, 126.00, 0.00)"><rect x="117.03" y="10.50" width="33.95" height="15.00" fill="#ffffde" opacity="0.5"/><text x="118.53" y="20.00" text-anchor="start" font-family="DejaVu Sans" font-size="10" fill="#000021">review</text></g></g></g></svg>