<svg xmlns="http://www.w3.org/2000/svg" width="970.6667" height="396.19165" viewBox="0 0 970.6667 396.19165"><rect x="0" y="0" width="970.6667" height="396.19165" fill="#FFFFFF"/><defs><marker id="arrow-0" viewBox="0 0 10 10" refX="5" refY="5" markerUnits="userSpaceOnUse" markerWidth="8" markerHeight="8" orient="auto"><path d="M 0 0 L 10 5 L 0 10 z" fill="#64748B" stroke="#64748B" stroke-width="1" stroke-dasharray="1,0"/></marker><marker id="arrow-start-0" viewBox="0 0 10 10" refX="4.5" refY="5" markerUnits="userSpaceOnUse" markerWidth="8" markerHeight="8" orient="auto"><path d="M 0 5 L 10 10 L 10 0 z" fill="#64748B" stroke="#64748B" stroke-width="1" stroke-dasharray="1,0"/></marker></defs><text x="485.33" y="46.90" text-anchor="middle" font-family="DejaVu Sans" font-size="16" fill="#0F172A"><tspan x="485.33" dy="0.00">Review an SDL proposal</tspan></text><circle cx="37.60" cy="68.99" r="5.60" fill="hsl(240, 100%, 46.2745098039%)" stroke="#64748B" stroke-width="1"/><text x="51.20" y="74.59" text-anchor="start" font-family="DejaVu Sans" font-size="16" fill="#0F172A">Author</text><circle cx="120.27" cy="68.99" r="5.60" fill="hsl(60, 100%, 43.5294117647%)" stroke="#64748B" stroke-width="1"/><text x="133.87" y="74.59" text-anchor="start" font-family="DejaVu Sans" font-size="16" fill="#0F172A">Reviewer</text><rect x="22.40" y="87.39" width="459.73" height="25.60" rx="8" ry="8" fill="hsl(240, 100%, 46.2745098039%)" fill-opacity="0.18" stroke="#CBD5E1" stroke-width="1"/><text x="252.27" y="104.19" text-anchor="middle" font-family="DejaVu Sans" font-size="16" fill="#0F172A"><tspan x="252.27" dy="0.00">Understand</tspan></text><rect x="488.53" y="239.39" width="459.73" height="25.60" rx="8" ry="8" fill="hsl(60, 100%, 43.5294117647%)" fill-opacity="0.18" stroke="#CBD5E1" stroke-width="1"/><text x="718.40" y="256.19" text-anchor="middle" font-family="DejaVu Sans" font-size="16" fill="#0F172A"><tspan x="718.40" dy="0.00">Improve</tspan></text><rect x="32.00" y="140.19" width="207.47" height="43.20" rx="10" ry="10" fill="#F8FAFC" stroke="#94A3B8" stroke-width="1.2"/><text x="135.73" y="165.79" text-anchor="middle" font-family="DejaVu Sans" font-size="16" fill="#0F172A"><tspan x="135.73" dy="0.00">Read context</tspan></text><circle cx="44.00" cy="121.79" r="8.80" fill="#4ADE80" stroke="#64748B" stroke-width="1"/><text x="44.00" y="127.39" text-anchor="middle" font-family="DejaVu Sans" font-size="16" fill="#0F172A">5</text><circle cx="126.13" cy="195.39" r="5.60" fill="hsl(240, 100%, 46.2745098039%)" stroke="#64748B" stroke-width="1"/><circle cx="145.33" cy="195.39" r="5.60" fill="hsl(60, 100%, 43.5294117647%)" stroke="#64748B" stroke-width="1"/><rect x="265.07" y="140.19" width="207.47" height="43.20" rx="10" ry="10" fill="#F8FAFC" stroke="#94A3B8" stroke-width="1.2"/><text x="368.80" y="165.79" text-anchor="middle" font-family="DejaVu Sans" font-size="16" fill="#0F172A"><tspan x="368.80" dy="0.00">Find unclear boundaries</tspan></text><circle cx="277.07" cy="121.79" r="8.80" fill="#CD8C75" stroke="#64748B" stroke-width="1"/><text x="277.07" y="127.39" text-anchor="middle" font-family="DejaVu Sans" font-size="16" fill="#0F172A">2</text><circle cx="368.80" cy="195.39" r="5.60" fill="hsl(60, 100%, 43.5294117647%)" stroke="#64748B" stroke-width="1"/><rect x="498.13" y="292.19" width="207.47" height="43.20" rx="10" ry="10" fill="#F8FAFC" stroke="#94A3B8" stroke-width="1.2"/><text x="601.87" y="317.79" text-anchor="middle" font-family="DejaVu Sans" font-size="16" fill="#0F172A"><tspan x="601.87" dy="0.00">Discuss alternatives</tspan></text><circle cx="510.13" cy="273.79" r="8.80" fill="#76C37C" stroke="#64748B" stroke-width="1"/><text x="510.13" y="279.39" text-anchor="middle" font-family="DejaVu Sans" font-size="16" fill="#0F172A">4</text><circle cx="592.27" cy="347.39" r="5.60" fill="hsl(240, 100%, 46.2745098039%)" stroke="#64748B" stroke-width="1"/><circle cx="611.47" cy="347.39" r="5.60" fill="hsl(60, 100%, 43.5294117647%)" stroke="#64748B" stroke-width="1"/><rect x="731.20" y="292.19" width="207.47" height="43.20" rx="10" ry="10" fill="#F8FAFC" stroke="#94A3B8" stroke-width="1.2"/><text x="834.93" y="317.79" text-anchor="middle" font-family="DejaVu Sans" font-size="16" fill="#0F172A"><tspan x="834.93" dy="0.00">Capture decision</tspan></text><circle cx="743.20" cy="273.79" r="8.80" fill="#4ADE80" stroke="#64748B" stroke-width="1"/><text x="743.20" y="279.39" text-anchor="middle" font-family="DejaVu Sans" font-size="16" fill="#0F172A">5</text><circle cx="834.93" cy="347.39" r="5.60" fill="hsl(240, 100%, 46.2745098039%)" stroke="#64748B" stroke-width="1"/><line x1="32.00" y1="370.59" x2="938.67" y2="370.59" stroke="#64748B" stroke-width="2"/><polygon points="938.67,370.59 930.67,365.79 930.67,375.39" fill="#64748B"/></svg>