<svg xmlns="http://www.w3.org/2000/svg" width="945.6" height="184.56667" viewBox="0 0 945.6 184.56667"><rect x="0" y="0" width="945.6" height="184.56667" fill="#FFFFFF"/><defs><marker id="arrow-0" viewBox="0 0 10 10" refX="5" refY="5" markerUnits="userSpaceOnUse" markerWidth="8" markerHeight="8" orient="auto"><path d="M 0 0 L 10 5 L 0 10 z" fill="#64748B" stroke="#64748B" stroke-width="1" stroke-dasharray="1,0"/></marker><marker id="arrow-start-0" viewBox="0 0 10 10" refX="4.5" refY="5" markerUnits="userSpaceOnUse" markerWidth="8" markerHeight="8" orient="auto"><path d="M 0 5 L 10 10 L 10 0 z" fill="#64748B" stroke="#64748B" stroke-width="1" stroke-dasharray="1,0"/></marker></defs><rect x="8.00" y="8.00" width="294.00" height="162.57" rx="10" ry="10" fill="#F1F5F9" stroke="#CBD5E1" stroke-width="1" /><text x="155.00" y="34.90" text-anchor="middle" font-family="DejaVu Sans" font-size="16" fill="#0F172A"><tspan x="155.00" dy="0.00">Proposed</tspan></text><rect x="608.27" y="8.00" width="323.33" height="113.47" rx="10" ry="10" fill="#F1F5F9" stroke="#CBD5E1" stroke-width="1" /><text x="769.93" y="34.90" text-anchor="middle" font-family="DejaVu Sans" font-size="16" fill="#0F172A"><tspan x="769.93" dy="0.00">Reviewed</tspan></text><rect x="306.80" y="8.00" width="296.67" height="113.47" rx="10" ry="10" fill="#F1F5F9" stroke="#CBD5E1" stroke-width="1" /><text x="455.13" y="34.90" text-anchor="middle" font-family="DejaVu Sans" font-size="16" fill="#0F172A"><tspan x="455.13" dy="0.00">Evidence</tspan></text><rect x="33.33" y="49.79" width="243.33" height="63.68" rx="3" ry="3" fill="#F8FAFC" stroke="#94A3B8" stroke-width="1" stroke-linejoin="round" stroke-linecap="round"/><text x="155.00" y="73.63" text-anchor="middle" font-family="DejaVu Sans" font-size="16" fill="#0F172A"><tspan x="155.00" dy="0.00">Clarify system</tspan><tspan x="155.00" dy="24.00">boundaries</tspan></text><rect x="314.80" y="49.79" width="280.67" height="63.68" rx="3" ry="3" fill="#F8FAFC" stroke="#94A3B8" stroke-width="1" stroke-linejoin="round" stroke-linecap="round"/><text x="455.13" y="73.63" text-anchor="middle" font-family="DejaVu Sans" font-size="16" fill="#0F172A"><tspan x="455.13" dy="0.00">Render acceptance</tspan><tspan x="455.13" dy="24.00">fixtures</tspan></text><rect x="16.00" y="120.67" width="278.00" height="41.89" rx="3" ry="3" fill="#F8FAFC" stroke="#94A3B8" stroke-width="1" stroke-linejoin="round" stroke-linecap="round"/><text x="155.00" y="145.62" text-anchor="middle" font-family="DejaVu Sans" font-size="16" fill="#0F172A"><tspan x="155.00" dy="0.00">Review typed ports</tspan></text><rect x="616.27" y="49.79" width="307.33" height="63.68" rx="3" ry="3" fill="#F8FAFC" stroke="#94A3B8" stroke-width="1" stroke-linejoin="round" stroke-linecap="round"/><text x="769.93" y="73.63" text-anchor="middle" font-family="DejaVu Sans" font-size="16" fill="#0F172A"><tspan x="769.93" dy="0.00">Document provenance</tspan><tspan x="769.93" dy="24.00">decision</tspan></text></svg>