<svg xmlns="http://www.w3.org/2000/svg" width="100%" viewBox="0 0 523.46155 360" style="max-width: 523.462px;"><rect x="0" y="0" width="523.46155" height="360" fill="#FFFFFF"/><defs><marker id="arrow-0" viewBox="0 0 10 10" refX="5" refY="5" markerUnits="userSpaceOnUse" markerWidth="8" markerHeight="8" orient="auto"><path d="M 0 0 L 10 5 L 0 10 z" fill="#64748B" stroke="#64748B" stroke-width="1" stroke-dasharray="1,0"/></marker><marker id="arrow-start-0" viewBox="0 0 10 10" refX="4.5" refY="5" markerUnits="userSpaceOnUse" markerWidth="8" markerHeight="8" orient="auto"><path d="M 0 5 L 10 10 L 10 0 z" fill="#64748B" stroke="#64748B" stroke-width="1" stroke-dasharray="1,0"/></marker></defs><path d="M 180.00 180.00 L 332.00 180.00 A 152.00 152.00 0 0 1 28.00 180.00 Z" fill="#F8FAFC" stroke="#FFFFFF" stroke-width="1.600" opacity="0.850"/><path d="M 180.00 180.00 L 28.00 180.00 A 152.00 152.00 0 0 1 256.00 48.36 Z" fill="#E2E8F0" stroke="#FFFFFF" stroke-width="1.600" opacity="0.850"/><path d="M 180.00 180.00 L 256.00 48.36 A 152.00 152.00 0 0 1 332.00 180.00 Z" fill="hsl(0.0000000000, 0.0000000000%, 60.0000000000%)" stroke="#FFFFFF" stroke-width="1.600" opacity="0.850"/><circle cx="180.00" cy="180.00" r="152.80" fill="none" stroke="#CBD5E1" stroke-width="1.600"/><text x="180.00" y="294.00" text-anchor="middle" dominant-baseline="middle" font-family="DejaVu Sans" font-size="17" fill="#0F172A">50%</text><text x="123.00" y="81.27" text-anchor="middle" dominant-baseline="middle" font-family="DejaVu Sans" font-size="17" fill="#0F172A">33%</text><text x="278.73" y="123.00" text-anchor="middle" dominant-baseline="middle" font-family="DejaVu Sans" font-size="17" fill="#0F172A">17%</text><rect x="348.80" y="148.12" width="14.00" height="14.00" fill="#F8FAFC" stroke="#F8FAFC" stroke-width="1.600"/><text x="365.80" y="155.12" text-anchor="start" font-family="DejaVu Sans" font-size="17" fill="#0F172A"><tspan x="365.80" dy="0.00">Parser fixtures [12]</tspan></text><rect x="348.80" y="169.38" width="14.00" height="14.00" fill="#E2E8F0" stroke="#E2E8F0" stroke-width="1.600"/><text x="365.80" y="176.38" text-anchor="start" font-family="DejaVu Sans" font-size="17" fill="#0F172A"><tspan x="365.80" dy="0.00">Preview checks [8]</tspan></text><rect x="348.80" y="190.62" width="14.00" height="14.00" fill="hsl(0.0000000000, 0.0000000000%, 60.0000000000%)" stroke="hsl(0.0000000000, 0.0000000000%, 60.0000000000%)" stroke-width="1.600"/><text x="365.80" y="197.62" text-anchor="start" font-family="DejaVu Sans" font-size="17" fill="#0F172A"><tspan x="365.80" dy="0.00">PDF checks [4]</tspan></text><text x="180.00" y="25.00" text-anchor="middle" font-family="DejaVu Sans" font-size="25" fill="#0F172A"><tspan x="180.00" dy="0.00">Evidence categories</tspan></text></svg>