<svg xmlns="http://www.w3.org/2000/svg" width="768.6666" height="753.5834" viewBox="0 0 768.6666 753.5834"><rect x="0" y="0" width="768.6666" height="753.5834" fill="#FFFFFF"/><defs><marker id="arrow-0" viewBox="0 0 10 10" refX="5" refY="5" markerUnits="userSpaceOnUse" markerWidth="8" markerHeight="8" orient="auto"><path d="M 0 0 L 10 5 L 0 10 z" fill="#64748B" stroke="#64748B" stroke-width="1" stroke-dasharray="1,0"/></marker><marker id="arrow-start-0" viewBox="0 0 10 10" refX="4.5" refY="5" markerUnits="userSpaceOnUse" markerWidth="8" markerHeight="8" orient="auto"><path d="M 0 5 L 10 10 L 10 0 z" fill="#64748B" stroke="#64748B" stroke-width="1" stroke-dasharray="1,0"/></marker></defs><g transform="translate(381.667, 403.583)"><path d="M-0.000,-60.000 L60.000,0.000 L-0.000,60.000 L-60.000,0.000 Z" fill="#DEDEDE" fill-opacity="0.3" stroke="#DEDEDE" stroke-width="1" /><path d="M-0.000,-120.000 L120.000,0.000 L-0.000,120.000 L-120.000,0.000 Z" fill="#DEDEDE" fill-opacity="0.3" stroke="#DEDEDE" stroke-width="1" /><path d="M-0.000,-180.000 L180.000,0.000 L-0.000,180.000 L-180.000,0.000 Z" fill="#DEDEDE" fill-opacity="0.3" stroke="#DEDEDE" stroke-width="1" /><path d="M-0.000,-240.000 L240.000,0.000 L-0.000,240.000 L-240.000,0.000 Z" fill="#DEDEDE" fill-opacity="0.3" stroke="#DEDEDE" stroke-width="1" /><path d="M-0.000,-300.000 L300.000,0.000 L-0.000,300.000 L-300.000,0.000 Z" fill="#DEDEDE" fill-opacity="0.3" stroke="#DEDEDE" stroke-width="1" /><line x1="0" y1="0" x2="-0.000" y2="-300.000" stroke="#64748B" stroke-width="2" /><text x="-0.000" y="-315.000" text-anchor="middle" dominant-baseline="middle" font-family="DejaVu Sans" font-size="12" fill="#0F172A">Syntax</text><line x1="0" y1="0" x2="300.000" y2="0.000" stroke="#64748B" stroke-width="2" /><text x="321.000" y="0.000" text-anchor="start" dominant-baseline="middle" font-family="DejaVu Sans" font-size="12" fill="#0F172A">Semantics</text><line x1="0" y1="0" x2="-0.000" y2="300.000" stroke="#64748B" stroke-width="2" /><text x="-0.000" y="315.000" text-anchor="middle" dominant-baseline="middle" font-family="DejaVu Sans" font-size="12" fill="#0F172A">Readability</text><line x1="0" y1="0" x2="-300.000" y2="0.000" stroke="#64748B" stroke-width="2" /><text x="-321.000" y="0.000" text-anchor="end" dominant-baseline="middle" font-family="DejaVu Sans" font-size="12" fill="#0F172A">Evidence</text><path d="M-0.000,-180.000 L120.000,0.000 L-0.000,120.000 L-60.000,0.000 Z" fill="hsl(240, 100%, 76.2745098039%)" fill-opacity="0.5" stroke="hsl(240, 100%, 76.2745098039%)" stroke-width="2" /><rect x="240.000" y="-240.000" width="12" height="12" fill="hsl(240, 100%, 76.2745098039%)" fill-opacity="0.5" stroke="hsl(240, 100%, 76.2745098039%)" /><text x="256.000" y="-240.000" text-anchor="start" dominant-baseline="hanging" font-family="DejaVu Sans" font-size="12" fill="#0F172A">Before</text><path d="M-0.000,-240.000 L240.000,0.000 L-0.000,180.000 L-240.000,0.000 Z" fill="hsl(60, 100%, 76.2745098039%)" fill-opacity="0.5" stroke="hsl(60, 100%, 76.2745098039%)" stroke-width="2" /><rect x="240.000" y="-218.000" width="12" height="12" fill="hsl(60, 100%, 76.2745098039%)" fill-opacity="0.5" stroke="hsl(60, 100%, 76.2745098039%)" /><text x="256.000" y="-218.000" text-anchor="start" dominant-baseline="hanging" font-family="DejaVu Sans" font-size="12" fill="#0F172A">After</text><text x="0" y="-350.000" text-anchor="middle" dominant-baseline="hanging" font-family="DejaVu Sans" font-size="16" font-weight="bold" fill="#0F172A">Illustrative review scores</text></g></svg>